<svg version="1.1" id="Layer_1" xmlns="http://www.w3.org/2000/svg" xmlns:xlink="http://www.w3.org/1999/xlink" x="0px" y="0px"
	 width="100%" viewBox="0 0 3859 1870" enable-background="new 0 0 3859 1870" xml:space="preserve">

<path fill="#2676F0" opacity="1.000000" stroke="none" 
	d="
M1395.172363,425.531647 
	C1429.468628,466.646057 1463.792358,507.737671 1498.055298,548.879822 
	C1565.514282,629.882812 1632.968506,710.890076 1700.370605,791.940430 
	C1761.180176,865.063171 1821.916260,938.247009 1882.694580,1011.395691 
	C1884.597534,1013.685730 1886.609253,1015.885437 1889.112671,1018.747375 
	C1899.459717,1006.456543 1909.545288,994.607666 1919.490112,982.641663 
	C1974.325928,916.661377 2029.102905,850.632141 2083.947998,784.659607 
	C2140.495361,716.638916 2197.114746,648.677856 2253.669922,580.663452 
	C2292.151123,534.385254 2330.554443,488.042297 2369.031494,441.760620 
	C2413.250488,388.572174 2457.512207,335.419159 2501.757568,282.252441 
	C2502.819092,280.976776 2503.689697,279.401947 2505.014648,278.508667 
	C2512.798096,273.261536 2513.918457,265.901794 2513.875000,257.002319 
	C2513.540039,188.675018 2513.690918,120.345337 2513.691162,52.016384 
	C2513.691162,48.392147 2513.691162,44.767914 2513.691162,40.415119 
	C2542.444824,40.415119 2570.591309,40.415119 2598.802734,40.415119 
	C2600.675537,47.159451 2601.243652,1259.141602 2599.193359,1272.179565 
	C2559.646484,1266.037109 2520.093506,1259.893677 2479.810059,1253.636841 
	C2480.898193,1251.568359 2481.493652,1249.678101 2482.681641,1248.297729 
	C2492.002441,1237.466187 2501.205811,1226.515991 2510.971924,1216.095581 
	C2514.045898,1212.815796 2513.649658,1209.527466 2513.658203,1206.002930 
	C2513.719482,1180.671509 2513.698486,1155.339600 2513.688477,1130.007935 
	C2513.680908,1111.343140 2513.650635,1092.678467 2513.613770,1072.592163 
	C2512.943115,1071.349854 2512.289062,1071.529053 2511.635254,1071.708374 
	C2501.873291,1082.997559 2491.946289,1094.148804 2482.378662,1105.600220 
	C2446.559082,1148.472412 2410.794189,1191.390747 2375.212891,1234.460449 
	C2371.818115,1238.569702 2368.989014,1239.624390 2363.495850,1238.939209 
	C2340.120117,1236.024292 2316.631348,1234.010010 2293.178467,1231.722900 
	C2277.703857,1230.213623 2262.219971,1228.799927 2245.548828,1227.231323 
	C2247.056885,1224.770996 2247.943848,1222.839233 2249.254150,1221.258423 
	C2273.868652,1191.560791 2298.531494,1161.903198 2323.187988,1132.240234 
	C2382.283691,1061.145508 2441.381104,990.052246 2500.479004,918.959473 
	C2500.904785,918.447327 2501.270508,917.841248 2501.796387,917.462524 
	C2512.285400,909.907593 2512.643311,899.198792 2512.501953,887.472839 
	C2512.008301,846.479919 2512.311035,805.477356 2512.311035,764.478455 
	C2512.311035,761.295044 2512.311035,758.111633 2512.311035,754.928162 
	C2511.716309,754.755432 2511.121826,754.582703 2510.527100,754.409973 
	C2501.864014,764.706665 2493.148682,774.959961 2484.546387,785.307190 
	C2429.485352,851.536926 2374.446289,917.785156 2319.405273,984.031616 
	C2262.876465,1052.068481 2206.352783,1120.109497 2149.830078,1188.151489 
	C2143.031006,1196.336182 2136.127441,1204.438965 2129.519287,1212.775391 
	C2126.367920,1216.750977 2122.849365,1218.671997 2117.612549,1218.398926 
	C2099.027100,1217.429810 2080.425293,1216.775269 2061.827637,1216.047974 
	C2046.221191,1215.437500 2030.616211,1214.592407 2015.003540,1214.380615 
	C1984.019653,1213.959961 1953.029053,1213.671021 1922.045166,1213.888916 
	C1915.610596,1213.934082 1911.664795,1211.740723 1907.786987,1207.057129 
	C1873.642212,1165.817139 1839.290283,1124.749023 1805.079468,1083.563599 
	C1758.121460,1027.031860 1711.280029,970.402893 1664.302856,913.886841 
	C1600.954956,837.676270 1537.514282,761.542725 1474.136230,685.357178 
	C1448.403320,654.424072 1422.810913,623.373474 1396.934570,592.560974 
	C1393.435059,588.393799 1392.221558,584.227295 1392.236450,578.977173 
	C1392.377686,529.311523 1392.343872,479.645477 1393.228882,428.524780 
	C1394.455566,426.557220 1394.813965,426.044434 1395.172363,425.531647 
M2260.305420,737.344116 
	C2226.776367,777.766785 2193.282227,818.218628 2159.710449,858.605652 
	C2103.186035,926.604797 2046.607300,994.558228 1990.064697,1062.541992 
	C1979.284790,1075.503174 1968.566284,1088.515259 1957.593994,1101.776489 
	C1978.849487,1127.275635 1999.604126,1152.173950 2020.582153,1177.340210 
	C2022.701904,1175.464966 2024.097900,1174.517090 2025.135010,1173.270630 
	C2058.729004,1132.898438 2092.289551,1092.498535 2125.852783,1052.100464 
	C2182.357666,984.088806 2238.857666,916.072571 2295.366211,848.063782 
	C2350.387207,781.844910 2405.365967,715.590637 2460.473145,649.443542 
	C2476.429199,630.291138 2492.606689,611.316040 2509.056885,592.588196 
	C2512.433105,588.744263 2512.304199,584.868408 2512.305908,580.614990 
	C2512.322266,535.300781 2512.321045,489.986633 2512.302002,444.672455 
	C2512.301025,442.191254 2512.098877,439.710083 2511.990234,437.228912 
	C2511.175049,436.770905 2510.359619,436.312897 2509.544189,435.854889 
	C2508.568848,437.559631 2507.818359,439.450684 2506.584717,440.941742 
	C2471.831299,482.942871 2437.072021,524.939331 2402.224365,566.862366 
	C2355.263184,623.358582 2308.227783,679.793213 2260.305420,737.344116 
z"/>
<path fill="#2676F0" opacity="1.000000" stroke="none" 
	d="
M869.303711,1353.264038 
	C878.596924,1341.590698 887.685791,1329.747681 897.215759,1318.270996 
	C969.017151,1231.802246 1040.900269,1145.401245 1112.768799,1058.988281 
	C1144.452881,1020.891907 1176.175171,982.827148 1207.851807,944.724487 
	C1215.481323,935.547058 1220.007568,925.483459 1219.848755,912.991821 
	C1219.386841,876.667236 1219.658203,840.333252 1219.723511,802.608032 
	C1219.585938,800.610046 1219.366699,800.007019 1219.147339,799.404053 
	C1218.583008,800.128479 1218.018677,800.852905 1217.454468,801.577332 
	C1205.806396,815.213928 1194.012085,828.728638 1182.536133,842.508545 
	C1135.928955,898.472656 1089.440918,954.535950 1042.869263,1010.529602 
	C964.613098,1104.617920 886.316833,1198.672852 808.058533,1292.759399 
	C782.114136,1323.951294 756.302795,1355.254517 730.220947,1386.330933 
	C727.592834,1389.462280 723.856140,1392.551880 720.048828,1393.671509 
	C663.320374,1410.357300 606.494873,1426.713135 549.669312,1443.067383 
	C548.971191,1443.268433 547.973633,1442.428833 546.816956,1441.951660 
	C574.312378,1409.002686 601.649414,1376.347168 628.872620,1343.597046 
	C673.938660,1289.381470 718.897156,1235.076416 763.962341,1180.860352 
	C852.394043,1074.471802 940.881592,968.129639 1029.319702,861.746338 
	C1090.970703,787.585571 1152.553955,713.368591 1214.265137,639.257996 
	C1217.826294,634.981445 1219.842407,630.803406 1219.812988,625.000427 
	C1219.577759,578.668762 1219.658203,532.335571 1219.723633,484.607819 
	C1219.585938,482.609833 1219.366577,482.006866 1219.147217,481.403870 
	C1218.582886,482.128326 1218.018555,482.852814 1217.454346,483.577271 
	C1207.935791,494.663177 1198.269775,505.626343 1188.922852,516.854980 
	C1130.202393,587.396667 1071.532104,657.979919 1012.886169,728.583374 
	C952.966309,800.720703 893.113831,872.914001 833.193481,945.050903 
	C788.781677,998.517334 744.296814,1051.922852 699.864807,1105.372437 
	C611.853210,1211.246460 523.856567,1317.132690 435.852051,1423.012695 
	C416.295807,1446.541138 396.646912,1469.993530 377.251038,1493.653442 
	C373.701843,1497.982910 369.619934,1500.579834 364.384491,1502.414673 
	C306.009796,1522.873901 247.706955,1543.538208 189.374817,1564.119019 
	C186.989059,1564.960693 184.505447,1565.525146 181.037735,1564.775513 
	C187.507355,1556.854004 193.922089,1548.886963 200.455017,1541.017944 
	C272.041901,1454.791260 343.610016,1368.548950 415.261169,1282.375610 
	C459.060272,1229.699341 503.045166,1177.177246 546.857788,1124.512085 
	C635.758667,1017.648376 724.607056,910.741028 813.461609,803.838867 
	C880.209351,723.533691 946.911743,643.190796 1013.673401,562.897217 
	C1080.009888,483.115143 1146.353027,403.338348 1212.844971,323.686005 
	C1217.825073,317.720215 1219.886475,311.711548 1219.860718,303.854156 
	C1219.587036,220.189316 1219.690796,136.523254 1219.690796,52.857536 
	C1219.690796,48.909645 1219.690796,44.961750 1219.690796,40.358437 
	C1248.560547,40.358437 1276.707275,40.358437 1305.584229,40.358437 
	C1305.584229,448.782166 1305.584229,857.247070 1305.584229,1266.508301 
	C1260.712158,1274.230713 1215.755615,1281.967773 1168.711060,1290.064209 
	C1173.561035,1283.919800 1177.099731,1279.263062 1180.821167,1274.757202 
	C1188.869141,1265.012817 1196.629150,1254.989258 1205.243652,1245.768188 
	C1211.321899,1239.261963 1214.605591,1231.357056 1218.581299,1223.785034 
	C1219.862793,1221.344727 1219.645508,1217.973755 1219.649170,1215.027954 
	C1219.696167,1177.361450 1219.658569,1139.694946 1219.614990,1100.477051 
	C1218.435425,1099.303589 1217.283325,1099.681519 1216.131104,1100.059448 
	C1184.847778,1137.530640 1153.527832,1174.971436 1122.292236,1212.482300 
	C1095.306641,1244.889282 1068.288574,1277.271118 1041.609253,1309.929077 
	C1037.088257,1315.463013 1031.905518,1318.221313 1025.195679,1319.695557 
	C985.337585,1328.453125 945.522339,1337.406372 905.708069,1346.361938 
	C894.380249,1348.909790 883.103638,1351.684692 870.773926,1354.044312 
	C869.744385,1353.733032 869.303711,1353.264038 869.303711,1353.264038 
z"/>
<path fill="#2676F0" opacity="1.000000" stroke="none" 
	d="
M713.328491,1449.364990 
	C775.561951,1433.203857 836.755920,1416.154175 898.551575,1401.671875 
	C981.344055,1382.268799 1064.406250,1363.891602 1147.727173,1346.911377 
	C1206.590942,1334.915283 1265.986450,1325.411133 1325.312988,1315.838989 
	C1372.151001,1308.281982 1419.194946,1301.926636 1466.243164,1295.770508 
	C1501.761841,1291.122925 1537.405151,1287.371582 1573.043213,1283.710083 
	C1602.742065,1280.658691 1632.492188,1278.037109 1662.259277,1275.739380 
	C1692.703491,1273.389404 1723.177490,1271.303711 1753.671997,1269.762573 
	C1788.186523,1268.018433 1822.727905,1266.516357 1857.276245,1265.800781 
	C1903.210449,1264.849487 1949.162354,1264.459351 1995.107178,1264.422363 
	C2019.373779,1264.402954 2043.651245,1265.401733 2067.906006,1266.382446 
	C2093.454346,1267.415283 2119.010742,1268.563721 2144.510498,1270.400757 
	C2181.894043,1273.093750 2219.233643,1276.400391 2256.584473,1279.532959 
	C2274.114746,1281.003296 2291.660156,1282.385986 2309.141602,1284.322754 
	C2340.785400,1287.828613 2372.412598,1291.514648 2403.998047,1295.509033 
	C2434.286377,1299.339478 2464.565674,1303.306396 2494.753418,1307.847656 
	C2533.489014,1313.674805 2572.227051,1319.588745 2610.785889,1326.462769 
	C2658.514648,1334.971313 2706.181152,1343.920166 2753.653564,1353.747437 
	C2807.327881,1364.858398 2860.858643,1376.714600 2914.270996,1389.029907 
	C3017.945801,1412.933960 3120.614746,1440.742432 3222.660645,1470.783447 
	C3311.024658,1496.796387 3398.882080,1524.503296 3485.737549,1555.205200 
	C3548.750000,1577.478760 3611.508789,1600.503540 3674.028809,1624.125000 
	C3714.149414,1639.283569 3753.632080,1656.130249 3793.392822,1672.239990 
	C3794.889893,1672.846558 3796.303223,1673.659668 3798.552490,1674.769775 
	C3786.150146,1702.687378 3773.925781,1730.204834 3761.299316,1758.627319 
	C3753.192871,1755.333618 3745.635498,1752.161987 3738.004639,1749.178467 
	C3673.896240,1724.112549 3610.113037,1698.164062 3545.557129,1674.306885 
	C3485.679199,1652.178223 3425.190674,1631.632446 3364.579346,1611.572998 
	C3267.363281,1579.398804 3169.351562,1549.756836 3070.311768,1523.669434 
	C3009.249023,1507.585205 2948.215332,1491.260376 2886.711426,1477.018188 
	C2817.142578,1460.908203 2747.175781,1446.441406 2677.163574,1432.345825 
	C2629.653809,1422.780396 2581.849365,1414.586182 2534.023438,1406.709961 
	C2495.385742,1400.346802 2456.570801,1394.978516 2417.739746,1389.892334 
	C2374.985840,1384.292114 2332.160889,1379.176880 2289.295166,1374.510620 
	C2262.577393,1371.602051 2235.734863,1369.806396 2208.932617,1367.713379 
	C2183.462646,1365.724487 2157.983154,1363.823242 2132.487061,1362.216309 
	C2114.581787,1361.088013 2096.645996,1360.401489 2078.715820,1359.728882 
	C2057.453369,1358.931274 2036.186768,1358.047363 2014.914429,1357.754883 
	C1966.973145,1357.095703 1919.027588,1356.522339 1871.082764,1356.439331 
	C1850.150024,1356.403076 1829.206665,1357.464111 1808.283081,1358.371948 
	C1782.071777,1359.508911 1755.860474,1360.756348 1729.677490,1362.406982 
	C1702.852783,1364.098022 1676.020142,1365.888916 1649.266602,1368.432861 
	C1606.676147,1372.482666 1564.119141,1376.931030 1521.603760,1381.708008 
	C1488.301514,1385.449585 1455.016357,1389.470825 1421.845215,1394.218750 
	C1376.834106,1400.661377 1331.810181,1407.177124 1287.026733,1415.005981 
	C1228.149292,1425.298828 1169.394897,1436.372803 1110.786621,1448.104980 
	C1064.534912,1457.363525 1018.488220,1467.710083 972.526917,1478.336670 
	C929.462952,1488.293457 886.423157,1498.479736 843.742004,1509.940308 
	C767.670654,1530.366821 691.497803,1550.564087 616.070251,1573.199463 
	C533.279846,1598.044434 450.915985,1624.451538 369.054413,1652.207520 
	C300.107422,1675.584839 232.072632,1701.670898 163.787460,1726.972046 
	C138.536163,1736.328369 113.724716,1746.871338 88.704590,1756.852905 
	C87.220909,1757.444824 85.665077,1757.856079 83.285622,1758.630127 
	C71.194923,1730.606689 59.277725,1702.985352 46.823364,1674.118896 
	C264.796356,1585.461182 486.786194,1511.967651 713.328491,1449.364990 
z"/>
<path fill="#2676F0" opacity="1.000000" stroke="none" 
	d="
M3662.026367,1563.945557 
	C3646.088867,1558.247192 3630.151123,1552.549927 3614.214111,1546.850220 
	C3568.813721,1530.613281 3523.447754,1514.278320 3477.967529,1498.268311 
	C3472.672607,1496.404541 3468.591797,1493.693359 3465.099609,1489.489380 
	C3387.760254,1396.385498 3310.392334,1303.305298 3233.011963,1210.235352 
	C3165.833496,1129.436035 3098.618652,1048.666992 3031.446045,967.862610 
	C2964.063721,886.805054 2896.718018,805.717041 2829.348389,724.648743 
	C2783.229980,669.152527 2737.100586,613.665161 2690.964355,558.183533 
	C2687.969238,554.581726 2685.544189,551.121094 2685.566650,545.848511 
	C2685.785400,494.521820 2685.714111,443.193909 2685.745117,391.866333 
	C2685.745361,391.217346 2685.997314,390.568512 2686.315918,389.031403 
	C2688.032959,390.338562 2689.703613,391.185974 2690.802979,392.508209 
	C2734.589844,445.182129 2778.288086,497.929840 2822.073975,550.604309 
	C2911.137451,657.747498 3000.254150,764.846558 3089.331543,871.978210 
	C3156.299805,952.519470 3223.232910,1033.089966 3290.196289,1113.635498 
	C3356.095703,1192.901611 3422.031250,1272.137939 3487.918213,1351.414551 
	C3545.302734,1420.460815 3602.643799,1489.542969 3659.977783,1558.631104 
	C3661.025635,1559.893555 3661.743164,1561.429932 3662.284668,1563.446289 
	C3661.954346,1564.054077 3662.026367,1563.945557 3662.026367,1563.945557 
z"/>
<path fill="#2676F0" opacity="1.000000" stroke="none" 
	d="
M2872.704590,929.283813 
	C2925.692871,992.958557 2978.201416,1056.108276 3030.691162,1119.274048 
	C3117.183350,1223.358154 3203.665039,1327.451294 3290.131836,1431.556763 
	C3291.488037,1433.189697 3292.597168,1435.027954 3294.973877,1438.409912 
	C3279.112549,1433.751587 3265.195557,1429.608032 3251.245850,1425.578003 
	C3208.140625,1413.124512 3165.052002,1400.611328 3121.866699,1388.440552 
	C3117.348877,1387.167114 3114.083496,1385.038818 3111.276367,1381.656128 
	C3055.436279,1314.360474 2999.634033,1247.033691 2943.750000,1179.774536 
	C2902.951172,1130.671143 2862.014893,1081.682129 2821.196533,1032.594727 
	C2777.400635,979.926392 2733.709473,927.170837 2689.823242,874.577820 
	C2687.065430,871.272827 2685.627197,868.155640 2685.634521,863.885681 
	C2685.722168,812.894165 2685.690430,761.902344 2685.710449,710.910645 
	C2685.710938,709.727234 2685.948975,708.544006 2686.313721,705.150757 
	C2749.151123,780.735657 2810.683594,854.750854 2872.704590,929.283813 
z"/>
<path fill="#2676F0" opacity="1.000000" stroke="none" 
	d="
M1392.452148,744.089722 
	C1395.973633,741.208435 1396.463501,744.787903 1397.667725,746.220703 
	C1418.418091,770.911987 1439.098755,795.662231 1459.718140,820.463135 
	C1548.568848,927.333313 1637.393555,1034.225220 1726.230957,1141.106567 
	C1745.570557,1164.374268 1764.930908,1187.624634 1784.253540,1210.906494 
	C1785.509277,1212.419556 1786.521851,1214.134521 1788.625000,1217.163330 
	C1779.119507,1217.581909 1770.739868,1217.816162 1762.378784,1218.344238 
	C1735.559937,1220.037842 1708.748169,1221.842407 1681.932983,1223.593262 
	C1680.604126,1223.680176 1679.213013,1223.431885 1677.944946,1223.734375 
	C1663.043579,1227.289795 1654.180420,1220.361938 1644.807373,1208.920898 
	C1582.228638,1132.534668 1518.769165,1056.869995 1455.608765,980.960144 
	C1436.043823,957.445984 1416.579346,933.847839 1396.919189,910.413757 
	C1393.506104,906.345459 1392.193359,902.139221 1392.211426,896.835815 
	C1392.384766,846.180237 1392.331299,795.523926 1392.452148,744.089722 
z"/>
<path fill="#2575F0" opacity="1.000000" stroke="none" 
	d="
M2581.901855,1861.693481 
	C2558.605225,1861.693359 2536.296143,1861.693359 2514.149902,1861.693359 
	C2511.912354,1854.331665 2511.395752,1465.890991 2513.562256,1454.520020 
	C2541.957275,1459.278076 2570.366943,1464.038452 2598.639893,1468.776001 
	C2600.656006,1476.012695 2601.398438,1845.557373 2599.349121,1861.693604 
	C2593.995361,1861.693604 2588.442627,1861.693604 2581.901855,1861.693481 
z"/>
<path fill="#2575F0" opacity="1.000000" stroke="none" 
	d="
M1219.694580,1752.000000 
	C1219.694458,1660.433472 1219.694458,1569.867065 1219.694458,1478.175903 
	C1248.512329,1473.105225 1276.730591,1468.140137 1305.741943,1463.035400 
	C1305.741943,1596.544678 1305.741943,1728.602905 1305.741943,1861.165405 
	C1277.050049,1861.165405 1248.919434,1861.165405 1219.694580,1861.165405 
	C1219.694580,1824.765259 1219.694580,1788.882690 1219.694580,1752.000000 
z"/>
<path fill="#2676F0" opacity="1.000000" stroke="none" 
	d="
M2945.550293,1334.545654 
	C2947.948242,1337.680786 2949.934326,1340.222778 2952.865723,1343.974976 
	C2949.357910,1343.713867 2947.457520,1343.807251 2945.668701,1343.404907 
	C2895.776611,1332.187378 2845.920654,1320.807739 2795.985840,1309.785156 
	C2788.792725,1308.197388 2783.455811,1305.141602 2778.734863,1299.391846 
	C2749.630127,1263.943237 2720.226318,1228.739624 2690.863037,1193.503540 
	C2687.818359,1189.849731 2685.567383,1186.304810 2685.585205,1181.119507 
	C2685.762207,1130.148193 2685.697021,1079.175903 2685.719971,1028.203979 
	C2685.720459,1027.240723 2685.955566,1026.277588 2686.239014,1024.103516 
	C2688.750488,1026.514771 2690.938721,1028.244995 2692.682861,1030.343872 
	C2775.744385,1130.290161 2858.767334,1230.268677 2941.802002,1330.237305 
	C2942.864746,1331.516724 2944.024170,1332.715942 2945.550293,1334.545654 
z"/>
<path fill="#2676F0" opacity="1.000000" stroke="none" 
	d="
M1394.505859,1029.571045 
	C1408.345703,1045.674072 1422.302979,1061.677979 1436.003296,1077.898804 
	C1476.512695,1125.861084 1516.925171,1173.905029 1557.356812,1221.932983 
	C1560.008057,1225.082520 1562.499756,1228.366333 1565.984985,1232.741455 
	C1522.949585,1237.663574 1481.951538,1242.352783 1440.690308,1247.071899 
	C1426.116821,1229.876465 1411.547974,1212.642212 1396.918945,1195.459351 
	C1393.542480,1191.493408 1392.171997,1187.200562 1392.194214,1181.845825 
	C1392.401611,1131.899658 1392.340210,1081.952393 1392.960815,1031.000977 
	C1393.878540,1029.854736 1394.192261,1029.712891 1394.505859,1029.571045 
z"/>
<path fill="#C7DCFB" opacity="1.000000" stroke="none" 
	d="
M1216.685669,1100.071289 
	C1217.283325,1099.681519 1218.435425,1099.303589 1219.521851,1099.556641 
	C1218.717407,1100.152832 1217.978882,1100.118042 1216.685669,1100.071289 
z"/>
<path fill="#C7DCFB" opacity="1.000000" stroke="none" 
	d="
M1217.934326,801.791199 
	C1218.018677,800.852905 1218.583008,800.128479 1219.147339,799.404053 
	C1219.366699,800.007019 1219.585938,800.610046 1219.629395,801.685913 
	C1219.107056,802.107544 1218.760620,802.056335 1217.934326,801.791199 
z"/>
<path fill="#C7DCFB" opacity="1.000000" stroke="none" 
	d="
M1217.934204,483.791077 
	C1218.018555,482.852814 1218.582886,482.128326 1219.147217,481.403870 
	C1219.366577,482.006866 1219.585938,482.609833 1219.629395,483.685608 
	C1219.107056,484.107269 1218.760620,484.056091 1217.934204,483.791077 
z"/>
<path fill="#5D99F4" opacity="1.000000" stroke="none" 
	d="
M1394.850098,425.079651 
	C1394.813965,426.044434 1394.455566,426.557220 1393.323730,427.600952 
	C1392.444336,426.532074 1390.747925,424.034454 1394.850098,425.079651 
z"/>
<path fill="#C9DDFB" opacity="1.000000" stroke="none" 
	d="
M2512.056152,1071.893921 
	C2512.289062,1071.529053 2512.943115,1071.349854 2513.494141,1071.673828 
	C2513.391602,1072.177124 2512.476807,1072.079590 2512.056152,1071.893921 
z"/>
<path fill="#5D99F4" opacity="1.000000" stroke="none" 
	d="
M1394.231445,1029.126831 
	C1394.192261,1029.712891 1393.878540,1029.854736 1393.055420,1030.079102 
	C1393.016235,1029.668579 1393.486572,1029.175659 1394.231445,1029.126831 
z"/>
<path fill="#2676F0" opacity="1.000000" stroke="none" 
	d="
M869.964600,1353.967529 
	C869.807739,1354.585571 869.430603,1354.969238 869.053467,1355.352905 
	C868.912659,1354.847656 868.771729,1354.342407 868.967285,1353.550537 
	C869.303711,1353.264038 869.744385,1353.733032 869.964600,1353.967529 
z"/>
<path fill="#2676F0" opacity="1.000000" stroke="none" 
	d="
M3661.920410,1564.109619 
	C3662.312744,1564.156006 3662.739258,1564.146851 3663.166016,1564.137695 
	C3663.143799,1564.400391 3663.121582,1564.663208 3663.099121,1564.925903 
	C3662.858643,1564.831543 3662.617920,1564.737183 3662.201904,1564.294189 
	C3662.026367,1563.945557 3661.954346,1564.054077 3661.920410,1564.109619 
z"/>
<path fill="#FEFEFF" opacity="1.000000" stroke="none" 
	d="
M2260.764648,736.799194 
	C2308.227783,679.793213 2355.263184,623.358582 2402.224365,566.862366 
	C2437.072021,524.939331 2471.831299,482.942871 2506.584717,440.941742 
	C2507.818359,439.450684 2508.568848,437.559631 2509.544189,435.854889 
	C2510.359619,436.312897 2511.175049,436.770905 2511.990234,437.228912 
	C2512.098877,439.710083 2512.301025,442.191254 2512.302002,444.672455 
	C2512.321045,489.986633 2512.322266,535.300781 2512.305908,580.614990 
	C2512.304199,584.868408 2512.433105,588.744263 2509.056885,592.588196 
	C2492.606689,611.316040 2476.429199,630.291138 2460.473145,649.443542 
	C2405.365967,715.590637 2350.387207,781.844910 2295.366211,848.063782 
	C2238.857666,916.072571 2182.357666,984.088806 2125.852783,1052.100464 
	C2092.289551,1092.498535 2058.729004,1132.898438 2025.135010,1173.270630 
	C2024.097900,1174.517090 2022.701904,1175.464966 2020.582153,1177.340210 
	C1999.604126,1152.173950 1978.849487,1127.275635 1957.593994,1101.776489 
	C1968.566284,1088.515259 1979.284790,1075.503174 1990.064697,1062.541992 
	C2046.607300,994.558228 2103.186035,926.604797 2159.710449,858.605652 
	C2193.282227,818.218628 2226.776367,777.766785 2260.764648,736.799194 
z"/>
</svg>